<svg version="1.1" id="Layer_1" xmlns="http://www.w3.org/2000/svg" xmlns:xlink="http://www.w3.org/1999/xlink" x="0px" y="0px"
	 width="100%" viewBox="0 0 1870 1870" enable-background="new 0 0 1870 1870" xml:space="preserve">
<path fill="#000000" opacity="1.000000" stroke="none" 
	d="
M209.000000,1871.000000 
	C139.671341,1871.000000 70.342674,1871.000000 1.010507,1871.000000 
	C1.007005,1247.713379 1.007005,624.426636 1.007005,1.069980 
	C624.244690,1.069980 1247.489380,1.069980 1870.867065,1.069980 
	C1870.867065,624.333313 1870.867065,1247.666626 1870.867065,1871.000000 
	C1824.561890,1871.000000 1778.231812,1871.000000 1731.359619,1870.635498 
	C1719.834961,1838.105713 1708.845459,1805.942871 1697.871948,1773.774536 
	C1671.459351,1696.347290 1644.958374,1618.950195 1618.683472,1541.476196 
	C1604.039795,1498.297729 1588.133789,1455.614746 1579.273438,1410.532227 
	C1570.570190,1366.249390 1546.053711,1330.921875 1508.997925,1304.964478 
	C1490.593018,1292.072144 1471.478760,1280.172363 1452.445068,1268.205933 
	C1441.738281,1261.474609 1431.071411,1254.251465 1419.481201,1249.423096 
	C1340.772705,1216.634888 1261.826050,1184.418091 1182.942871,1152.049683 
	C1178.642456,1150.285156 1174.219971,1148.817993 1169.574585,1147.025879 
	C1165.102051,1143.298584 1160.656738,1140.008301 1156.807983,1136.126465 
	C1154.369019,1133.666382 1152.172119,1130.549805 1151.048340,1127.316895 
	C1149.881104,1123.959106 1149.794434,1120.102661 1149.833862,1116.470825 
	C1149.963745,1104.489624 1150.364502,1092.511475 1150.984253,1080.326904 
	C1154.771973,1078.127441 1158.381836,1076.341064 1161.647217,1074.061157 
	C1163.617310,1072.685425 1165.547974,1070.802368 1166.647461,1068.702759 
	C1174.527710,1053.653198 1182.169312,1038.478638 1189.926025,1023.364136 
	C1205.744263,992.541626 1221.350586,961.606934 1237.521118,930.970093 
	C1245.522339,915.810852 1254.762329,901.310974 1263.117310,886.331726 
	C1273.786621,867.203247 1281.044556,846.963318 1282.175293,824.815979 
	C1282.930786,810.018677 1284.057495,795.240662 1284.873535,780.446045 
	C1285.810181,763.466553 1289.049561,747.166870 1297.031738,731.888733 
	C1302.579834,721.269592 1307.473999,710.296936 1312.376953,699.355286 
	C1320.048340,682.235413 1321.022339,664.260132 1318.437378,645.956360 
	C1314.107666,615.297302 1302.148804,587.458557 1287.445435,560.483459 
	C1276.828003,541.004517 1264.108887,523.176270 1248.629272,507.424652 
	C1225.624146,484.015350 1198.190918,467.166321 1167.750732,455.220886 
	C1137.892090,443.503601 1106.506104,437.984528 1074.883911,434.225433 
	C1037.013428,429.723572 999.021667,426.228638 961.065918,422.463837 
	C943.999023,420.770996 926.890991,418.270050 909.803589,418.285797 
	C882.518555,418.310944 855.236572,420.171051 827.950378,421.176117 
	C811.018311,421.799835 794.906799,424.504639 779.401611,432.531219 
	C751.319397,447.068604 722.419556,460.018585 694.078979,474.070679 
	C686.837219,477.661316 680.186646,482.597992 673.683899,487.475403 
	C668.660461,491.243225 669.271729,495.397095 674.716187,498.349670 
	C677.931580,500.093414 681.337769,501.481567 684.616394,503.113464 
	C689.567627,505.577850 690.114197,508.568207 686.030945,512.359192 
	C682.743652,515.411194 679.162537,518.156189 675.625793,520.927673 
	C671.564087,524.110535 667.224304,526.961304 663.335449,530.336731 
	C657.620178,535.297363 658.281128,538.847473 665.246094,541.576782 
	C668.649841,542.910522 672.169006,543.983093 675.693054,544.969971 
	C685.318115,547.665161 695.146606,549.751465 704.572144,553.011047 
	C715.830261,556.904480 724.449646,563.972656 726.565002,576.611816 
	C727.936462,584.806641 728.979492,593.056458 729.954346,601.541565 
	C727.676575,604.947998 725.539673,608.048523 723.563843,611.248535 
	C710.181702,632.921631 696.586670,654.468811 683.559021,676.353455 
	C674.477295,691.609497 668.813049,708.158325 670.084229,726.205566 
	C670.664185,734.438843 672.781433,742.564636 674.214050,750.736938 
	C675.532593,758.258789 677.360840,765.731506 678.070862,773.309509 
	C678.950623,782.699524 675.931763,790.265442 665.952332,793.605652 
	C663.901489,794.292114 661.889160,795.997498 660.547729,797.757996 
	C648.403870,813.695679 634.870789,828.283569 620.005615,841.750061 
	C611.512817,849.443787 607.130127,861.306946 619.455688,871.444275 
	C631.605896,881.437317 644.429688,890.611267 656.754272,900.398926 
	C651.208618,908.176880 645.370361,915.406677 640.686279,923.319702 
	C637.116089,929.351013 637.426880,936.338135 639.841553,943.429810 
	C641.513306,950.363892 642.674194,957.161865 650.109314,961.017883 
	C642.336548,967.003174 643.551575,973.415283 648.410034,980.026611 
	C648.783508,980.534790 648.864258,981.257996 649.061646,982.339600 
	C649.469360,988.106079 649.638855,993.450500 650.382324,998.713928 
	C651.583740,1007.219116 655.207153,1010.861511 663.632019,1012.761658 
	C662.745300,1013.916199 661.240051,1014.468018 660.254700,1015.510986 
	C650.874817,1025.439331 644.156921,1036.747681 643.051025,1050.692993 
	C641.813293,1066.300049 645.634338,1080.757690 653.594116,1094.149170 
	C660.343689,1105.504517 669.978027,1112.278076 683.542358,1112.799561 
	C691.357117,1113.100098 699.165161,1113.959961 706.974243,1113.936157 
	C718.997253,1113.899414 730.735779,1115.978149 741.555420,1120.676758 
	C757.365601,1127.542603 773.591492,1132.751221 790.270996,1136.814819 
	C799.899048,1139.160645 808.549194,1143.120117 813.685425,1152.597412 
	C813.389526,1153.617798 813.166504,1154.291016 812.529602,1155.005615 
	C807.530334,1155.834717 802.792053,1156.126587 798.383057,1157.486206 
	C750.779297,1172.165649 703.252991,1187.096558 655.637329,1201.736816 
	C647.263977,1204.311279 638.669189,1206.646729 630.008240,1207.679443 
	C619.802917,1208.896240 609.361511,1208.031616 599.114929,1209.023682 
	C570.242981,1211.818970 542.693970,1219.179077 518.250305,1235.467163 
	C496.680328,1249.840698 473.947510,1262.860840 458.553772,1284.789307 
	C444.786652,1304.400757 430.013641,1323.359375 417.157227,1343.544189 
	C397.949951,1373.699829 384.048279,1406.662598 370.058258,1439.455933 
	C332.647400,1527.148560 299.349731,1616.448608 266.820679,1706.034668 
	C249.023849,1755.047974 231.675171,1804.223999 214.219513,1853.360474 
	C212.169815,1859.130249 210.725174,1865.114990 209.000000,1871.000000 
z"/>
<path fill="#353535" opacity="1.000000" stroke="none" 
	d="
M209.468658,1871.000000 
	C210.725174,1865.114990 212.169815,1859.130249 214.219513,1853.360474 
	C231.675171,1804.223999 249.023849,1755.047974 266.820679,1706.034668 
	C299.349731,1616.448608 332.647400,1527.148560 370.058258,1439.455933 
	C384.048279,1406.662598 397.949951,1373.699829 417.157227,1343.544189 
	C430.013641,1323.359375 444.786652,1304.400757 458.553772,1284.789307 
	C473.947510,1262.860840 496.680328,1249.840698 518.250305,1235.467163 
	C542.693970,1219.179077 570.242981,1211.818970 599.114929,1209.023682 
	C609.361511,1208.031616 619.802917,1208.896240 630.008240,1207.679443 
	C638.669189,1206.646729 647.263977,1204.311279 655.637329,1201.736816 
	C703.252991,1187.096558 750.779297,1172.165649 798.383057,1157.486206 
	C802.792053,1156.126587 807.530334,1155.834717 812.572144,1155.391479 
	C811.642639,1161.175659 810.256836,1166.615234 808.604309,1172.221680 
	C798.001221,1183.769043 797.956909,1197.459229 799.519836,1211.881592 
	C799.170288,1214.881714 799.035400,1217.553955 798.519165,1220.150513 
	C789.288696,1266.579712 785.084412,1313.313965 789.342407,1360.640747 
	C792.376221,1394.361450 799.309326,1427.155029 812.445740,1458.421631 
	C828.684265,1497.071655 852.288086,1530.009888 888.824646,1552.017334 
	C916.412354,1568.634644 945.648254,1573.303711 976.320129,1560.902710 
	C992.340515,1554.425415 1005.630676,1543.800293 1017.789734,1531.827881 
	C1039.145996,1510.799194 1056.927612,1486.826782 1072.630249,1461.450439 
	C1093.216919,1428.181152 1112.931396,1394.370850 1132.887939,1360.714355 
	C1137.123169,1353.571655 1141.496338,1346.372437 1144.556030,1338.700928 
	C1150.103760,1324.791016 1155.105835,1310.631104 1159.627441,1296.351440 
	C1168.117554,1269.538330 1176.530518,1242.685913 1184.157959,1215.619507 
	C1189.818848,1195.531616 1189.466064,1175.736328 1176.202515,1157.614258 
	C1174.036743,1153.911133 1171.945557,1150.561768 1169.854370,1147.212402 
	C1174.219971,1148.817993 1178.642456,1150.285156 1182.942871,1152.049683 
	C1261.826050,1184.418091 1340.772705,1216.634888 1419.481201,1249.423096 
	C1431.071411,1254.251465 1441.738281,1261.474609 1452.445068,1268.205933 
	C1471.478760,1280.172363 1490.593018,1292.072144 1508.997925,1304.964478 
	C1546.053711,1330.921875 1570.570190,1366.249390 1579.273438,1410.532227 
	C1588.133789,1455.614746 1604.039795,1498.297729 1618.683472,1541.476196 
	C1644.958374,1618.950195 1671.459351,1696.347290 1697.871948,1773.774536 
	C1708.845459,1805.942871 1719.834961,1838.105713 1730.908691,1870.635498 
	C1223.979126,1871.000000 716.958191,1871.000000 209.468658,1871.000000 
z"/>
<path fill="#1A1A1A" opacity="1.000000" stroke="none" 
	d="
M813.758301,1152.250244 
	C808.549194,1143.120117 799.899048,1139.160645 790.270996,1136.814819 
	C773.591492,1132.751221 757.365601,1127.542603 741.555420,1120.676758 
	C730.735779,1115.978149 718.997253,1113.899414 706.974243,1113.936157 
	C699.165161,1113.959961 691.357117,1113.100098 683.542358,1112.799561 
	C669.978027,1112.278076 660.343689,1105.504517 653.594116,1094.149170 
	C645.634338,1080.757690 641.813293,1066.300049 643.051025,1050.692993 
	C644.156921,1036.747681 650.874817,1025.439331 660.254700,1015.510986 
	C661.240051,1014.468018 662.745300,1013.916199 663.632019,1012.761658 
	C655.207153,1010.861511 651.583740,1007.219116 650.382324,998.713928 
	C649.638855,993.450500 649.469360,988.106079 649.480591,982.395142 
	C658.278198,980.621033 666.637268,979.249756 675.423096,977.927856 
	C677.565674,977.929138 679.281555,977.880981 681.244568,977.893005 
	C681.658569,977.922913 681.825439,977.892578 682.324707,977.911133 
	C683.103577,977.937439 683.550049,977.914795 684.240601,977.968201 
	C684.654663,978.032532 684.824707,978.020813 685.289551,978.172607 
	C692.685974,981.732300 696.444031,987.523926 695.373962,995.193176 
	C694.492371,1001.511780 692.345642,1007.721558 690.198303,1013.780640 
	C686.609375,1023.907166 690.947937,1033.367798 700.844604,1037.090088 
	C706.361267,1039.165039 710.957764,1038.209961 715.973816,1035.484741 
	C722.525879,1031.924927 729.346252,1028.713257 736.348938,1026.172363 
	C742.539795,1023.926086 745.067810,1026.458374 744.433960,1033.006836 
	C744.161865,1035.817871 743.901855,1038.641968 743.874268,1041.462402 
	C743.814148,1047.602783 745.325562,1048.778809 751.012634,1046.249512 
	C756.456970,1043.828125 761.605042,1040.740601 767.187012,1037.862671 
	C768.326843,1037.183472 769.163086,1036.587524 770.187134,1035.753662 
	C771.235901,1035.005371 772.096802,1034.494873 773.200012,1034.221924 
	C774.867126,1036.676514 776.011963,1039.168457 777.820190,1041.008545 
	C778.933716,1042.141724 781.060059,1042.279663 782.731689,1042.864380 
	C782.961853,1041.264160 783.952881,1039.165771 783.288574,1038.151245 
	C780.598389,1034.043335 781.084656,1030.400024 783.828918,1026.764648 
	C783.831848,1026.821899 783.717285,1026.827637 783.987549,1026.710205 
	C784.855896,1026.102661 785.453979,1025.612549 786.062134,1025.083618 
	C786.072327,1025.044922 786.149719,1025.065552 786.398315,1024.934814 
	C787.103821,1024.473022 787.560669,1024.142090 787.982422,1023.886597 
	C787.947388,1023.962097 787.796448,1023.891785 787.970337,1023.820557 
	C788.337646,1023.167114 788.531006,1022.584961 788.557983,1021.682556 
	C788.305725,1020.891541 788.219971,1020.420715 788.247498,1019.620850 
	C788.046875,1017.194336 787.732910,1015.096985 787.256226,1012.622681 
	C787.057312,1011.163147 787.021118,1010.080444 787.098816,1008.707092 
	C786.869202,1006.947083 786.525635,1005.477783 786.066406,1003.619019 
	C785.967957,1002.151550 785.985229,1001.073425 786.057800,999.823486 
	C785.975830,999.093628 785.838562,998.535583 785.541504,997.656372 
	C785.334961,996.862305 785.288086,996.389343 785.306152,995.678833 
	C785.280823,994.636230 785.190613,993.831299 785.015015,992.697571 
	C784.938171,991.918091 784.946777,991.467285 785.033569,990.787598 
	C784.833191,989.704956 784.554749,988.851318 784.168213,987.576904 
	C783.733032,983.093994 783.406006,979.031860 783.122864,974.793945 
	C782.978760,974.074402 782.790771,973.530640 782.460449,972.551514 
	C782.414795,969.083252 782.511353,966.050354 782.856201,962.809570 
	C783.681885,960.910583 784.259216,959.219421 784.971680,957.235107 
	C791.238647,953.367920 796.999817,948.734375 803.577026,946.433411 
	C818.806519,941.105652 834.478943,937.059570 849.884277,932.215759 
	C876.696106,923.785400 902.789673,913.833008 924.059387,894.507263 
	C927.859314,891.054749 931.798279,887.543701 934.745483,883.399902 
	C949.952820,862.018433 955.430664,837.561340 956.432617,811.833862 
	C957.464172,785.345276 952.890869,759.487061 947.777405,733.647278 
	C945.831604,723.814697 940.971985,716.827881 932.820923,711.156311 
	C909.187073,694.711670 885.886841,677.787964 862.361816,661.185425 
	C859.169800,658.932739 858.139038,656.691345 859.225464,652.830444 
	C860.388672,648.696228 861.184937,644.345886 861.338562,640.061096 
	C861.864136,625.404053 858.192322,612.900269 844.050415,605.159851 
	C824.827271,594.638184 804.147461,590.904846 782.789001,592.858704 
	C765.140076,594.473389 747.701477,598.386841 730.169678,601.281677 
	C728.979492,593.056458 727.936462,584.806641 726.565002,576.611816 
	C724.449646,563.972656 715.830261,556.904480 704.572144,553.011047 
	C695.146606,549.751465 685.318115,547.665161 675.693054,544.969971 
	C672.169006,543.983093 668.649841,542.910522 665.246094,541.576782 
	C658.281128,538.847473 657.620178,535.297363 663.335449,530.336731 
	C667.224304,526.961304 671.564087,524.110535 675.625793,520.927673 
	C679.162537,518.156189 682.743652,515.411194 686.030945,512.359192 
	C690.114197,508.568207 689.567627,505.577850 684.616394,503.113464 
	C681.337769,501.481567 677.931580,500.093414 674.716187,498.349670 
	C669.271729,495.397095 668.660461,491.243225 673.683899,487.475403 
	C680.186646,482.597992 686.837219,477.661316 694.078979,474.070679 
	C722.419556,460.018585 751.319397,447.068604 779.401611,432.531219 
	C794.906799,424.504639 811.018311,421.799835 827.950378,421.176117 
	C855.236572,420.171051 882.518555,418.310944 909.803589,418.285797 
	C926.890991,418.270050 943.999023,420.770996 961.065918,422.463837 
	C999.021667,426.228638 1037.013428,429.723572 1074.883911,434.225433 
	C1106.506104,437.984528 1137.892090,443.503601 1167.750732,455.220886 
	C1198.190918,467.166321 1225.624146,484.015350 1248.629272,507.424652 
	C1264.108887,523.176270 1276.828003,541.004517 1287.445435,560.483459 
	C1302.148804,587.458557 1314.107666,615.297302 1318.437378,645.956360 
	C1321.022339,664.260132 1320.048340,682.235413 1312.376953,699.355286 
	C1307.473999,710.296936 1302.579834,721.269592 1297.031738,731.888733 
	C1289.049561,747.166870 1285.810181,763.466553 1284.873535,780.446045 
	C1284.057495,795.240662 1282.930786,810.018677 1282.175293,824.815979 
	C1281.044556,846.963318 1273.786621,867.203247 1263.117310,886.331726 
	C1254.762329,901.310974 1245.522339,915.810852 1237.521118,930.970093 
	C1221.350586,961.606934 1205.744263,992.541626 1189.926025,1023.364136 
	C1182.169312,1038.478638 1174.527710,1053.653198 1166.647461,1068.702759 
	C1165.547974,1070.802368 1163.617310,1072.685425 1161.647217,1074.061157 
	C1158.381836,1076.341064 1154.771973,1078.127441 1150.564209,1080.262329 
	C1140.223511,1080.798218 1132.838257,1076.047729 1127.662598,1068.847168 
	C1115.431274,1051.830566 1103.740356,1034.415527 1092.187256,1016.926208 
	C1086.374268,1008.126465 1086.718384,1007.885254 1095.052490,1001.071106 
	C1098.017334,998.646851 1101.057495,996.314209 1104.000854,993.864685 
	C1105.024780,993.012634 1105.860229,991.934326 1106.781738,990.959351 
	C1106.560059,990.651245 1106.338379,990.343140 1106.116699,990.035034 
	C1099.671875,992.695007 1093.226929,995.354980 1086.782104,998.014893 
	C1086.400757,997.622803 1086.019287,997.230652 1085.637939,996.838501 
	C1096.536133,989.782288 1101.226929,979.833679 1100.887817,966.618408 
	C1095.565552,967.908325 1090.827271,969.056763 1085.191040,970.422852 
	C1086.118652,968.854431 1086.413818,968.096497 1086.923462,967.532593 
	C1095.435791,958.116089 1101.797119,947.320374 1105.550903,935.301819 
	C1114.139038,907.804321 1122.539673,880.237122 1130.324829,852.504089 
	C1134.978638,835.925171 1132.359985,819.431641 1126.475342,803.478394 
	C1119.393799,784.280334 1098.681641,768.198120 1072.747070,779.514404 
	C1070.306030,780.579529 1067.700439,781.285278 1065.307495,782.440063 
	C1047.244995,791.156494 1028.145752,796.068359 1008.201477,797.281067 
	C1000.524902,797.747864 995.685242,801.455750 992.546692,807.766296 
	C981.389954,830.198425 973.579712,853.739380 972.925537,878.933228 
	C972.242554,905.236267 972.512573,931.573303 972.821960,957.890137 
	C973.139160,984.863770 980.178711,1009.907654 996.287231,1031.913208 
	C999.019775,1035.646118 998.749146,1037.421265 994.725342,1039.908447 
	C952.779663,1065.836792 910.937439,1091.932739 869.098511,1118.033447 
	C855.966553,1126.225708 842.930664,1134.572021 829.512573,1142.928467 
	C824.035706,1146.089478 818.896973,1149.169922 813.758301,1152.250244 
M1108.428223,989.667297 
	C1108.428223,989.667297 1108.547607,989.438660 1108.547607,989.438660 
	C1108.547607,989.438660 1108.288696,989.480713 1108.428223,989.667297 
z"/>
<path fill="#AA7657" opacity="1.000000" stroke="none" 
	d="
M829.850708,1142.847778 
	C842.930664,1134.572021 855.966553,1126.225708 869.098511,1118.033447 
	C910.937439,1091.932739 952.779663,1065.836792 994.725342,1039.908447 
	C998.749146,1037.421265 999.019775,1035.646118 996.287231,1031.913208 
	C980.178711,1009.907654 973.139160,984.863770 972.821960,957.890137 
	C972.512573,931.573303 972.242554,905.236267 972.925537,878.933228 
	C973.579712,853.739380 981.389954,830.198425 992.546692,807.766296 
	C995.685242,801.455750 1000.524902,797.747864 1008.201477,797.281067 
	C1028.145752,796.068359 1047.244995,791.156494 1065.307495,782.440063 
	C1067.700439,781.285278 1070.306030,780.579529 1072.747070,779.514404 
	C1098.681641,768.198120 1119.393799,784.280334 1126.475342,803.478394 
	C1132.359985,819.431641 1134.978638,835.925171 1130.324829,852.504089 
	C1122.539673,880.237122 1114.139038,907.804321 1105.550903,935.301819 
	C1101.797119,947.320374 1095.435791,958.116089 1086.923462,967.532593 
	C1086.413818,968.096497 1086.118652,968.854431 1085.191040,970.422852 
	C1090.827271,969.056763 1095.565552,967.908325 1100.887817,966.618408 
	C1101.226929,979.833679 1096.536133,989.782288 1085.637939,996.838501 
	C1086.019287,997.230652 1086.400757,997.622803 1086.782104,998.014893 
	C1093.226929,995.354980 1099.671875,992.695007 1106.116699,990.035034 
	C1106.338379,990.343140 1106.560059,990.651245 1106.781738,990.959351 
	C1105.860229,991.934326 1105.024780,993.012634 1104.000854,993.864685 
	C1101.057495,996.314209 1098.017334,998.646851 1095.052490,1001.071106 
	C1086.718384,1007.885254 1086.374268,1008.126465 1092.187256,1016.926208 
	C1103.740356,1034.415527 1115.431274,1051.830566 1127.662598,1068.847168 
	C1132.838257,1076.047729 1140.223511,1080.798218 1150.241211,1080.467529 
	C1150.364502,1092.511475 1149.963745,1104.489624 1149.833862,1116.470825 
	C1149.794434,1120.102661 1149.881104,1123.959106 1151.048340,1127.316895 
	C1152.172119,1130.549805 1154.369019,1133.666382 1156.807983,1136.126465 
	C1160.656738,1140.008301 1165.102051,1143.298584 1169.574585,1147.025879 
	C1171.945557,1150.561768 1174.036743,1153.911133 1176.169922,1158.076904 
	C1175.965210,1176.851196 1175.415771,1194.799805 1171.022461,1212.330078 
	C1169.480835,1218.481079 1167.146362,1224.433594 1165.069336,1230.846191 
	C1154.740723,1243.895142 1145.427856,1257.462158 1134.112061,1269.077637 
	C1106.845703,1297.066528 1073.546387,1315.732300 1036.558472,1327.776611 
	C991.491272,1342.451904 945.554138,1348.153198 898.681824,1338.231323 
	C868.131775,1331.764526 842.045532,1316.903931 824.130554,1290.896484 
	C816.611694,1279.981201 812.585510,1266.659912 806.919434,1254.030029 
	C810.574036,1233.356934 813.944031,1213.016846 818.091614,1192.836792 
	C821.536377,1176.076172 825.896240,1159.503662 829.850708,1142.847778 
M1083.899902,998.467285 
	C1084.103882,998.530518 1084.307739,998.593811 1084.511719,998.657043 
	C1084.385620,998.518677 1084.259521,998.380310 1083.899902,998.467285 
z"/>
<path fill="#AA7657" opacity="1.000000" stroke="none" 
	d="
M788.134155,1019.949951 
	C788.219971,1020.420715 788.305725,1020.891541 788.382690,1021.986572 
	C788.181396,1023.037842 787.988892,1023.464783 787.796448,1023.891785 
	C787.796448,1023.891785 787.947388,1023.962097 787.689270,1023.934448 
	C787.004028,1024.293091 786.576843,1024.679321 786.149719,1025.065552 
	C786.149719,1025.065552 786.072327,1025.044922 785.766968,1025.138306 
	C784.880188,1025.763672 784.298706,1026.295654 783.717285,1026.827637 
	C783.717285,1026.827637 783.831848,1026.821899 783.474976,1026.848877 
	C779.630310,1029.407837 778.572937,1026.711304 777.322876,1024.237305 
	C769.825806,1009.399902 762.628235,994.397949 754.666565,979.813477 
	C749.718201,970.748962 746.228271,961.899231 746.501099,951.147644 
	C746.978821,932.321167 736.391113,918.896606 718.224548,913.688049 
	C709.780945,911.267151 702.082214,907.915649 695.339600,902.090881 
	C692.732361,899.838501 688.838989,897.773071 685.571716,897.832581 
	C676.022949,898.006409 666.494446,899.293579 656.958008,900.144531 
	C644.429688,890.611267 631.605896,881.437317 619.455688,871.444275 
	C607.130127,861.306946 611.512817,849.443787 620.005615,841.750061 
	C634.870789,828.283569 648.403870,813.695679 660.547729,797.757996 
	C661.889160,795.997498 663.901489,794.292114 665.952332,793.605652 
	C675.931763,790.265442 678.950623,782.699524 678.070862,773.309509 
	C677.360840,765.731506 675.532593,758.258789 674.214050,750.736938 
	C672.781433,742.564636 670.664185,734.438843 670.084229,726.205566 
	C668.813049,708.158325 674.477295,691.609497 683.559021,676.353455 
	C696.586670,654.468811 710.181702,632.921631 723.563843,611.248535 
	C725.539673,608.048523 727.676575,604.947998 729.954346,601.541565 
	C747.701477,598.386841 765.140076,594.473389 782.789001,592.858704 
	C804.147461,590.904846 824.827271,594.638184 844.050415,605.159851 
	C858.192322,612.900269 861.864136,625.404053 861.338562,640.061096 
	C861.184937,644.345886 860.388672,648.696228 859.225464,652.830444 
	C858.139038,656.691345 859.169800,658.932739 862.361816,661.185425 
	C885.886841,677.787964 909.187073,694.711670 932.820923,711.156311 
	C940.971985,716.827881 945.831604,723.814697 947.777405,733.647278 
	C952.890869,759.487061 957.464172,785.345276 956.432617,811.833862 
	C955.430664,837.561340 949.952820,862.018433 934.745483,883.399902 
	C931.798279,887.543701 927.859314,891.054749 924.059387,894.507263 
	C902.789673,913.833008 876.696106,923.785400 849.884277,932.215759 
	C834.478943,937.059570 818.806519,941.105652 803.577026,946.433411 
	C796.999817,948.734375 791.238647,953.367920 784.699951,957.445312 
	C783.731323,959.638245 783.169617,961.327881 782.607910,963.017456 
	C782.511353,966.050354 782.414795,969.083252 782.407471,972.813721 
	C782.690857,973.997498 782.884888,974.483582 783.078979,974.969727 
	C783.406006,979.031860 783.733032,983.093994 784.118225,987.891479 
	C784.436035,989.423401 784.695679,990.219971 784.955383,991.016541 
	C784.946777,991.467285 784.938171,991.918091 784.939697,993.058655 
	C785.046997,994.471130 785.144165,995.193787 785.241272,995.916443 
	C785.288086,996.389343 785.334961,996.862305 785.493530,997.914062 
	C785.737732,998.993713 785.870117,999.494507 786.002502,999.995300 
	C785.985229,1001.073425 785.967957,1002.151550 786.045532,1003.982422 
	C786.421936,1006.156067 786.703369,1007.576904 786.984863,1008.997803 
	C787.021118,1010.080444 787.057312,1011.163147 787.238403,1013.021606 
	C787.633606,1015.848267 787.883911,1017.899109 788.134155,1019.949951 
z"/>
<path fill="#959594" opacity="1.000000" stroke="none" 
	d="
M1165.174072,1230.476685 
	C1167.146362,1224.433594 1169.480835,1218.481079 1171.022461,1212.330078 
	C1175.415771,1194.799805 1175.965210,1176.851196 1176.244385,1158.430664 
	C1189.466064,1175.736328 1189.818848,1195.531616 1184.157959,1215.619507 
	C1176.530518,1242.685913 1168.117554,1269.538330 1159.627441,1296.351440 
	C1155.105835,1310.631104 1150.103760,1324.791016 1144.556030,1338.700928 
	C1141.496338,1346.372437 1137.123169,1353.571655 1132.887939,1360.714355 
	C1112.931396,1394.370850 1093.216919,1428.181152 1072.630249,1461.450439 
	C1056.927612,1486.826782 1039.145996,1510.799194 1017.789734,1531.827881 
	C1005.630676,1543.800293 992.340515,1554.425415 976.320129,1560.902710 
	C945.648254,1573.303711 916.412354,1568.634644 888.824646,1552.017334 
	C852.288086,1530.009888 828.684265,1497.071655 812.445740,1458.421631 
	C799.309326,1427.155029 792.376221,1394.361450 789.342407,1360.640747 
	C785.084412,1313.313965 789.288696,1266.579712 798.519165,1220.150513 
	C799.035400,1217.553955 799.170288,1214.881714 799.708496,1211.512207 
	C802.913147,1197.871460 805.892090,1184.963135 808.870972,1172.054932 
	C810.256836,1166.615234 811.642639,1161.175659 812.985962,1155.350098 
	C813.166504,1154.291016 813.389526,1153.617798 813.685425,1152.597412 
	C818.896973,1149.169922 824.035706,1146.089478 829.512573,1142.928467 
	C825.896240,1159.503662 821.536377,1176.076172 818.091614,1192.836792 
	C813.944031,1213.016846 810.574036,1233.356934 806.624390,1254.346436 
	C804.940247,1268.111694 803.015381,1281.126465 802.151001,1294.211182 
	C799.771973,1330.226318 801.238342,1366.035767 808.893066,1401.465698 
	C815.270447,1430.983521 824.860657,1459.248535 840.999146,1484.953735 
	C855.908447,1508.701050 874.410339,1528.983154 899.299622,1542.649048 
	C913.520874,1550.457520 928.730469,1555.277588 945.120300,1554.535400 
	C965.421631,1553.615845 982.557617,1544.807251 997.822083,1531.916382 
	C1017.843140,1515.008667 1034.548950,1495.029541 1048.577637,1473.140259 
	C1070.849487,1438.388916 1092.000977,1402.916626 1113.438477,1367.635254 
	C1119.829956,1357.116089 1127.174561,1346.792969 1131.343872,1335.379517 
	C1143.446777,1302.249268 1154.180054,1268.618042 1165.349731,1235.149658 
	C1165.811646,1233.765747 1165.255737,1232.042114 1165.174072,1230.476685 
z"/>
<path fill="#221F1E" opacity="1.000000" stroke="none" 
	d="
M656.754272,900.398926 
	C666.494446,899.293579 676.022949,898.006409 685.571716,897.832581 
	C688.838989,897.773071 692.732361,899.838501 695.339600,902.090881 
	C702.082214,907.915649 709.780945,911.267151 718.224548,913.688049 
	C736.391113,918.896606 746.978821,932.321167 746.501099,951.147644 
	C746.228271,961.899231 749.718201,970.748962 754.666565,979.813477 
	C762.628235,994.397949 769.825806,1009.399902 777.322876,1024.237305 
	C778.572937,1026.711304 779.630310,1029.407837 783.472046,1026.791504 
	C781.084656,1030.400024 780.598389,1034.043335 783.288574,1038.151245 
	C783.952881,1039.165771 782.961853,1041.264160 782.731689,1042.864380 
	C781.060059,1042.279663 778.933716,1042.141724 777.820190,1041.008545 
	C776.011963,1039.168457 774.867126,1036.676514 773.172546,1033.849365 
	C772.221436,1031.378540 771.687988,1029.447144 770.836487,1027.668091 
	C758.730835,1002.376404 746.582031,977.105408 734.441406,951.449707 
	C733.104065,944.623657 727.983032,942.536499 722.554688,941.177795 
	C701.412537,935.886108 680.273376,934.255188 659.596985,943.032593 
	C652.802368,945.916931 646.401184,947.093140 639.793152,943.039673 
	C637.426880,936.338135 637.116089,929.351013 640.686279,923.319702 
	C645.370361,915.406677 651.208618,908.176880 656.754272,900.398926 
z"/>
<path fill="#92654E" opacity="1.000000" stroke="none" 
	d="
M639.841553,943.429810 
	C646.401184,947.093140 652.802368,945.916931 659.596985,943.032593 
	C680.273376,934.255188 701.412537,935.886108 722.554688,941.177795 
	C727.983032,942.536499 733.104065,944.623657 734.041748,951.535400 
	C714.589783,959.757874 695.527222,967.496033 676.510193,975.344604 
	C675.781128,975.645386 675.491028,977.009644 674.996399,977.878418 
	C666.637268,979.249756 658.278198,980.621033 649.500061,981.936768 
	C648.864258,981.257996 648.783508,980.534790 648.410034,980.026611 
	C643.551575,973.415283 642.336548,967.003174 650.109314,961.017883 
	C642.674194,957.161865 641.513306,950.363892 639.841553,943.429810 
z"/>
<path fill="#997765" opacity="1.000000" stroke="none" 
	d="
M808.604248,1172.221680 
	C805.892090,1184.963135 802.913147,1197.871460 799.745605,1211.149048 
	C797.956909,1197.459229 798.001221,1183.769043 808.604248,1172.221680 
z"/>
<path fill="#A87557" opacity="1.000000" stroke="none" 
	d="
M675.423096,977.927856 
	C675.491028,977.009644 675.781128,975.645386 676.510193,975.344604 
	C695.527222,967.496033 714.589783,959.757874 734.044128,951.915039 
	C746.582031,977.105408 758.730835,1002.376404 770.836487,1027.668091 
	C771.687988,1029.447144 772.221436,1031.378540 772.930237,1033.611572 
	C772.096802,1034.494873 771.235901,1035.005371 769.876038,1035.809326 
	C768.545837,1036.717163 767.714600,1037.331543 766.883362,1037.945923 
	C761.605042,1040.740601 756.456970,1043.828125 751.012634,1046.249512 
	C745.325562,1048.778809 743.814148,1047.602783 743.874268,1041.462402 
	C743.901855,1038.641968 744.161865,1035.817871 744.433960,1033.006836 
	C745.067810,1026.458374 742.539795,1023.926086 736.348938,1026.172363 
	C729.346252,1028.713257 722.525879,1031.924927 715.973816,1035.484741 
	C710.957764,1038.209961 706.361267,1039.165039 700.844604,1037.090088 
	C690.947937,1033.367798 686.609375,1023.907166 690.198303,1013.780640 
	C692.345642,1007.721558 694.492371,1001.511780 695.373962,995.193176 
	C696.444031,987.523926 692.685974,981.732300 685.178711,978.097412 
	C684.509399,977.758789 684.250549,977.769958 683.996521,977.892090 
	C683.550049,977.914795 683.103577,977.937439 682.207764,977.850586 
	C681.492188,977.670166 681.238464,977.700745 680.997375,977.832764 
	C679.281555,977.880981 677.565674,977.929138 675.423096,977.927856 
z"/>
<path fill="#221F1E" opacity="1.000000" stroke="none" 
	d="
M788.247498,1019.620850 
	C787.883911,1017.899109 787.633606,1015.848267 787.401123,1013.398560 
	C787.732910,1015.096985 788.046875,1017.194336 788.247498,1019.620850 
z"/>
<path fill="#221F1E" opacity="1.000000" stroke="none" 
	d="
M782.856201,962.809570 
	C783.169617,961.327881 783.731323,959.638245 784.564819,957.738525 
	C784.259216,959.219421 783.681885,960.910583 782.856201,962.809570 
z"/>
<path fill="#221F1E" opacity="1.000000" stroke="none" 
	d="
M787.098816,1008.707092 
	C786.703369,1007.576904 786.421936,1006.156067 786.161255,1004.371826 
	C786.525635,1005.477783 786.869202,1006.947083 787.098816,1008.707092 
z"/>
<path fill="#221F1E" opacity="1.000000" stroke="none" 
	d="
M785.033569,990.787598 
	C784.695679,990.219971 784.436035,989.423401 784.226318,988.312256 
	C784.554749,988.851318 784.833191,989.704956 785.033569,990.787598 
z"/>
<path fill="#221F1E" opacity="1.000000" stroke="none" 
	d="
M767.187012,1037.862671 
	C767.714600,1037.331543 768.545837,1036.717163 769.688171,1036.047119 
	C769.163086,1036.587524 768.326843,1037.183472 767.187012,1037.862671 
z"/>
<path fill="#221F1E" opacity="1.000000" stroke="none" 
	d="
M786.057800,999.823486 
	C785.870117,999.494507 785.737732,998.993713 785.653320,998.235229 
	C785.838562,998.535583 785.975830,999.093628 786.057800,999.823486 
z"/>
<path fill="#221F1E" opacity="1.000000" stroke="none" 
	d="
M787.970337,1023.820557 
	C787.988892,1023.464783 788.181396,1023.037842 788.549133,1022.306824 
	C788.531006,1022.584961 788.337646,1023.167114 787.970337,1023.820557 
z"/>
<path fill="#221F1E" opacity="1.000000" stroke="none" 
	d="
M783.987549,1026.710205 
	C784.298706,1026.295654 784.880188,1025.763672 785.756836,1025.177002 
	C785.453979,1025.612549 784.855896,1026.102661 783.987549,1026.710205 
z"/>
<path fill="#221F1E" opacity="1.000000" stroke="none" 
	d="
M783.122864,974.793945 
	C782.884888,974.483582 782.690857,973.997498 782.549805,973.249146 
	C782.790771,973.530640 782.978760,974.074402 783.122864,974.793945 
z"/>
<path fill="#221F1E" opacity="1.000000" stroke="none" 
	d="
M785.306152,995.678833 
	C785.144165,995.193787 785.046997,994.471130 785.025146,993.387390 
	C785.190613,993.831299 785.280823,994.636230 785.306152,995.678833 
z"/>
<path fill="#221F1E" opacity="1.000000" stroke="none" 
	d="
M786.398315,1024.934814 
	C786.576843,1024.679321 787.004028,1024.293091 787.724365,1023.859009 
	C787.560669,1024.142090 787.103821,1024.473022 786.398315,1024.934814 
z"/>
<path fill="#92654E" opacity="1.000000" stroke="none" 
	d="
M681.244568,977.892944 
	C681.238464,977.700745 681.492188,977.670166 681.875366,977.801636 
	C681.825439,977.892578 681.658569,977.922913 681.244568,977.892944 
z"/>
<path fill="#AA7657" opacity="1.000000" stroke="none" 
	d="
M1108.358398,989.573975 
	C1108.288696,989.480713 1108.547607,989.438660 1108.547607,989.438660 
	C1108.547607,989.438660 1108.428223,989.667297 1108.358398,989.573975 
z"/>
<path fill="#92654E" opacity="1.000000" stroke="none" 
	d="
M684.240601,977.968201 
	C684.250549,977.769958 684.509399,977.758789 684.883911,977.933838 
	C684.824707,978.020813 684.654663,978.032532 684.240601,977.968201 
z"/>
<path fill="#363535" opacity="1.000000" stroke="none" 
	d="
M1165.069336,1230.846191 
	C1165.255737,1232.042114 1165.811646,1233.765747 1165.349731,1235.149658 
	C1154.180054,1268.618042 1143.446777,1302.249268 1131.343872,1335.379517 
	C1127.174561,1346.792969 1119.829956,1357.116089 1113.438477,1367.635254 
	C1092.000977,1402.916626 1070.849487,1438.388916 1048.577637,1473.140259 
	C1034.548950,1495.029541 1017.843140,1515.008667 997.822083,1531.916382 
	C982.557617,1544.807251 965.421631,1553.615845 945.120300,1554.535400 
	C928.730469,1555.277588 913.520874,1550.457520 899.299622,1542.649048 
	C874.410339,1528.983154 855.908447,1508.701050 840.999146,1484.953735 
	C824.860657,1459.248535 815.270447,1430.983521 808.893066,1401.465698 
	C801.238342,1366.035767 799.771973,1330.226318 802.151001,1294.211182 
	C803.015381,1281.126465 804.940247,1268.111694 806.676392,1254.748779 
	C812.585510,1266.659912 816.611694,1279.981201 824.130554,1290.896484 
	C842.045532,1316.903931 868.131775,1331.764526 898.681824,1338.231323 
	C945.554138,1348.153198 991.491272,1342.451904 1036.558472,1327.776611 
	C1073.546387,1315.732300 1106.845703,1297.066528 1134.112061,1269.077637 
	C1145.427856,1257.462158 1154.740723,1243.895142 1165.069336,1230.846191 
z"/>
<path fill="#1A1A1A" opacity="1.000000" stroke="none" 
	d="
M1084.016602,998.354614 
	C1084.259521,998.380310 1084.385620,998.518677 1084.511719,998.657043 
	C1084.307739,998.593811 1084.103882,998.530518 1084.016602,998.354614 
z"/>
</svg>