<?xml version="1.0" encoding="utf-8"?>
<svg xmlns="http://www.w3.org/2000/svg" xmlns:xlink="http://www.w3.org/1999/xlink" version= "1.1" width="1080px" height="2245px" viewBox="0 0 1080 2245">
<g id="layer1">
<g style="fill:rgb(211,173,153); fill-opacity:1.0; stroke-linejoin: miter">
<path d="M413.38422,965.68115L411.4607,1007.39124L409.47556,1034.0641L404.2195,1040.8232Q405.31076,1059.1628,407.02884,1068.3906Q409.25885,1079.2,414.51172,1085.971L417.9628,1112.5278L427.0089,1113.094L462.05774,1143.8679L516.8662,1150.1267L568.22656,1138.1218L600.8148,1107.9404L615.9646,1099.4883L620.2179,1100.4728Q623.5117,1103.8811,626.0209,1104.3065Q628.38055,1104.6217,630.6073,1102.2426Q635.3258,1097.5374,645.5609,1071.227Q648.24316,1067.2358,650.66504,1063.2156L653.86694,1057.1375Q656.7999,1049.9572,656.70917,1046.7301Q657.00745,1040.3293,654.6704,1033.636Q652.3335,1026.9426,649.11804,1020.1516L602.411,871.9261L531.6787,881.204L422.7082,904.8487L413.38422,965.68115"/>
</g>
</g>
<g id="layer2">
<g style="fill:rgb(0,0,0); fill-opacity:1.0; stroke-linejoin: miter">
<path d="M415.6584,1087.5029L416.5447,1088.8955Q422.06445,1098.078,428.5208,1102.9448Q434.0721,1107.377,450.35178,1113.3113Q450.66373,1135.499,461.50443,1137.4066Q466.27692,1138.8383,474.1292,1136.9298Q475.72046,1136.9609,500.76532,1127.042Q507.2793,1124.7817,513.7022,1124.3785Q521.0203,1124.4523,525.4971,1126.2146Q543.42126,1134.009,545.7058,1134.0668Q553.2755,1135.4191,558.2201,1133.5095Q564.99774,1131.0513,568.014,1125.2949Q571.09766,1120.6486,572.8689,1104.7458L612.22424,1078.2386L616.4877,1023.68524L619.0729,1023.22644Q618.2206,1040.004,612.94885,1103.7167L607.77124,1128.1036L595.18274,1149.0154L560.30347,1165.8816L520.7409,1178.3585L492.2949,1176.5018L460.49658,1168.0112L436.333,1142.7683L424.86313,1121.2795L415.6584,1087.5029"/>
</g>
<g style="fill:rgb(0,0,0); fill-opacity:1.0; stroke-linejoin: miter">
<path d="M509.8076,1085.7294L509.8076,1085.7303Q501.7097,1088.5018,498.87418,1089.127Q495.35098,1089.9548,494.6099,1090.0404Q487.2442,1090.9758,485.78476,1091.4972Q480.7663,1093.2246,479.02127,1095.7433Q472.617,1101.6265,467.98312,1140.5477L457.09842,1145.7137Q458.51453,1113.5194,460.53363,1104.3978Q461.78955,1095.3837,466.7521,1088.1051Q470.23465,1083.8295,474.27325,1081.3949Q486.1927,1073.6444,490.95056,1071.8976Q493.58203,1070.6423,497.60684,1070.4078L500.43567,1070.6771Q507.64252,1072.6122,507.49228,1072.1147Q507.8902,1072.1993,509.60687,1071.4586L514.5135,1068.5325Q514.9895,1068.2334,516.782,1067.9375Q519.3153,1067.7635,522.2239,1068.6317Q524.64923,1069.291,529.38135,1071.1809Q538.70276,1073.2671,542.3655,1074.8032Q549.92346,1077.4261,555.38885,1084.095Q560.62897,1091.1992,563.2631,1103.342Q565.6112,1113.1654,568.0474,1134.3087L559.6197,1138.8274Q554.5002,1115.4413,550.5852,1104.6135Q547.1093,1095.4159,543.06494,1092.0455Q540.2251,1088.9127,531.80225,1087.1599Q525.15656,1085.9528,509.8076,1085.7294"/>
</g>
<g style="fill:rgb(0,0,0); fill-opacity:1.0; stroke-linejoin: miter">
<path d="M508.8694,1110.363L508.52658,1110.3584Q503.13553,1110.1285,500.26437,1111.883Q499.02567,1112.7065,498.89346,1112.9465Q498.51035,1113.348,498.26944,1113.8082Q497.8212,1115.0074,497.96524,1115.3124Q498.01254,1115.8549,498.29642,1116.445Q499.48636,1118.9783,504.12347,1120.9504Q508.18246,1122.4843,513.25836,1122.4733Q517.4302,1122.4635,520.3675,1122.025Q523.5566,1121.588,525.80566,1120.8972Q526.8625,1120.5697,527.6281,1120.2048Q528.17505,1120.0425,529.3297,1119.037Q529.70337,1118.6243,529.8455,1118.185Q530.0434,1117.9788,529.81055,1116.8187Q529.8349,1116.5923,528.94806,1115.373Q528.1189,1114.38,526.7691,1113.4435Q524.71954,1112.0157,521.94684,1111.1287Q519.5446,1110.3887,516.62103,1110.2352Q514.0845,1110.0629,508.8694,1110.363"/>
</g>
<g style="fill:rgb(0,0,0); fill-opacity:1.0; stroke-linejoin: miter">
<path d="M419.33286,964.53174L410.33624,983.1399L405.34076,948.56384L413.92767,916.47955Q405.09732,893.36456,403.17834,882.19116Q400.96487,873.5404,406.916,866.36206Q413.62213,859.16034,448.15433,839.53485L462.42352,835.4328Q504.17755,823.3261,543.15454,829.53754Q580.16766,835.34985,599.8955,847.88916Q615.3455,856.917,632.3465,872.6168Q641.7055,880.5206,648.1421,891.5453Q656.8313,909.6924,656.4087,929.12933Q657.71295,949.2699,649.6689,1016.9543L638.7976,1017.61096L632.38635,1019.8048L623.53687,1020.0222L615.7565,1023.3035Q614.1131,998.4667,610.0607,988.3454Q606.5849,977.8143,593.1719,961.3456Q602.1526,931.5701,594.33154,921.8899L589.87054,916.0621L541.8357,902.7875L461.88614,901.51465Q448.4521,905.09717,444.39856,907.601Q431.53284,912.93646,416.63297,942.0175L419.33286,964.53174"/>
</g>
</g>
<g id="layer3">
<g style="fill:rgb(211,173,153); fill-opacity:1.0; stroke-linejoin: miter">
<path d="M563.9109,988.256L565.5424,988.36346Q578.6617,989.18225,583.3745,990.712Q588.3586,991.9493,590.947,995.6848Q595.50165,1001.82947,590.49426,1029.565Q587.5996,1040.6991,580.0693,1043.59Q576.72015,1045.182,568.0064,1046.0142Q564.0699,1046.3357,559.9666,1046.531Q552.9455,1046.3699,550.13,1046.1367Q539.74854,1045.3312,535.77905,1042.5839Q531.9214,1040.6149,526.53186,1032.9601Q515.88525,1007.8592,517.6117,1000.44464Q518.4546,997.2958,518.9712,996.8841Q519.64264,995.8329,520.62695,994.94525Q523.6073,992.31213,529.4895,990.8771Q545.1238,987.41187,563.9109,988.256"/>
</g>
<g style="fill:rgb(211,173,153); fill-opacity:1.0; stroke-linejoin: miter">
<path d="M440.3691,996.5715L438.76178,996.79865Q420.44855,998.7639,415.53748,1005.9691Q410.50986,1012.29376,415.2205,1028.842Q416.8472,1035.4727,421.73856,1045.6718Q424.40836,1050.4594,427.54974,1052.0914Q430.14783,1053.8512,436.9666,1054.3297Q446.513,1054.5804,454.40146,1053.4602Q465.29105,1052.0187,470.22223,1049.7435Q475.39304,1047.6312,479.4448,1041.5437Q480.89346,1039.3132,482.1956,1036.9833Q485.4416,1025.617,486.6493,1020.01215Q489.22522,1007.8292,487.60828,1003.76984Q486.4386,1000.734,485.8824,1000.38007Q485.10474,999.40784,484.03397,998.6311Q480.6859,996.3168,475.03113,995.5645Q460.35153,993.68463,440.3691,996.5715"/>
</g>
<g style="fill:rgb(0,0,0); fill-opacity:1.0; stroke-linejoin: miter">
</g>
</g>
<g id="layer4">
<g style="fill:rgb(254,254,254); fill-opacity:1.0; stroke-linejoin: miter">
<path d="M412.7246,1032.8234L412.70337,1032.8357L412.70273,1032.836L412.70273,1032.836L412.7021,1032.8364L412.72333,1032.8241C410.35977,1034.2188,408.6199,1035.3041,407.80057,1036.8436L407.80057,1036.8436C406.98987,1038.367,406.94037,1040.6001,407.31693,1045.5991L407.31693,1045.5991C407.565,1048.8925,407.9602,1053.1335,408.3023,1056.8046L408.3023,1056.8046C408.46024,1058.4989,408.60925,1060.0984,408.72293,1061.3821L408.72293,1061.3821C408.77054,1061.9196,408.80786,1062.3536,408.8468,1062.8062L408.8468,1062.8062C408.87543,1063.1388,408.9117,1063.5591,408.93674,1063.8414L408.93674,1063.8414C409.1333,1066.0608,409.2756,1067.2174,409.8068,1069.395L409.8068,1069.3949C410.52472,1072.3378,411.93848,1077.0776,412.98672,1080.4174L412.9971,1080.4517L412.99774,1080.4539L412.98734,1080.4194C413.9312,1083.4263,414.44492,1084.7886,414.72168,1085.138L414.72137,1085.1376C414.7392,1085.16,414.64578,1085.0284,414.41812,1084.915L414.41843,1084.9152C414.25516,1084.8337,414.04666,1084.7745,413.81186,1084.7745L413.81186,1084.7745C413.16373,1084.7745,412.87344,1085.1915,412.94626,1085.1045L412.94647,1085.1042C413.08566,1084.9379,413.31165,1084.4501,413.70053,1083.523C414.02466,1082.7502,414.84808,1082.3125,415.66992,1082.4762C416.49176,1082.6399,417.08472,1083.3596,417.088,1084.1976L417.088,1084.1976L417.1234,1093.1937L413.63867,1092.8278C413.643,1092.8077,413.64703,1092.7887,413.65506,1092.7539L413.65488,1092.7546C413.33078,1094.162,413.53598,1091.3192,415.39548,1091.3192L415.39548,1091.3192C417.6898,1091.3192,417.19214,1094.8843,417.1677,1093.1437L417.16766,1093.1406C417.168,1093.1613,417.1681,1093.1844,417.1681,1093.2003L417.1681,1093.2003C417.1681,1093.4906,417.13733,1094.1378,417.05746,1095.4633L417.0575,1095.4633C417.05035,1095.5819,417.03732,1095.7958,417.0291,1095.9302L417.0291,1095.9302C417.01123,1096.2233,417.0131,1096.1913,416.99432,1096.5027L416.99432,1096.5027C416.8231,1099.3438,416.58755,1103.7428,416.82916,1106.5883L416.82916,1106.5883C417.09903,1109.7672,417.9182,1110.4491,418.3505,1110.6904L418.35056,1110.6904C418.74506,1110.9106,419.27966,1111.0153,420.09558,1111.0153L420.09558,1111.0153C420.52103,1111.0153,420.9631,1110.9885,421.4733,1110.9569L419.91943,1113.2999L413.75388,1095.7472L417.09048,1094.6118C419.788,1102.8026,422.46603,1110.9335,425.41205,1118.5929L425.41205,1118.5929C428.3617,1126.2617,431.54517,1133.3629,434.94382,1138.744L434.94382,1138.744C437.61343,1142.9708,440.43723,1146.1736,443.73062,1149.9039L443.73062,1149.9039C444.61795,1150.909,445.50873,1151.9177,446.46085,1153.0203L446.46072,1153.0201C446.7369,1153.3398,446.84686,1153.4681,447.12512,1153.792L447.12512,1153.792C447.3556,1154.0602,447.57953,1154.3208,447.81396,1154.5923L447.8141,1154.5923C451.89764,1159.3213,456.9489,1164.7755,467.8206,1169.2539L467.8206,1169.2539C477.34393,1173.1768,491.35327,1176.3557,507.0031,1176.3557L507.0031,1176.3557C511.37683,1176.3557,515.87756,1176.107,520.4369,1175.5586L520.4369,1175.5586C541.3458,1173.043,563.6932,1164.2012,578.3641,1156.7081L578.3641,1156.7081C592.97205,1149.2472,599.5707,1143.326,603.9541,1134.069L603.9541,1134.069C608.4473,1124.58,610.66785,1111.492,612.9337,1098.0474C613.0303,1097.4744,613.403,1096.9857,613.9302,1096.7413C614.45734,1096.497,615.0711,1096.5281,615.5708,1096.8246L615.5708,1096.8246C619.7619,1099.3114,623.319,1101.3574,626.3151,1101.3574L626.3151,1101.3574C627.56024,1101.3574,628.69666,1100.9923,629.7755,1100.0525L629.7755,1100.0525C632.72766,1097.481,635.1928,1090.9458,637.64856,1084.2726L637.64856,1084.2726C638.43896,1082.1248,639.21844,1080.0059,639.99347,1078.1385L639.99347,1078.1385C641.65015,1074.1473,643.2744,1071.333,644.8671,1068.5709L644.86707,1068.5709C646.2665,1066.1439,647.63605,1063.7673,649.05426,1060.5868L649.05426,1060.5868C652.12836,1053.6927,655.3055,1043.3007,654.42395,1034.9526L654.42395,1034.9526C653.5418,1026.5989,648.6246,1020.34607,644.98566,1018.6794L644.9857,1018.67944C644.2126,1018.3254,643.5144,1018.18744,642.86786,1018.18744L642.86786,1018.18744C640.5584,1018.18744,638.3909,1019.89435,635.5458,1022.2766C635.03125,1022.70746,634.3167,1022.80865,633.70276,1022.53766L633.6263,1022.5017L633.62555,1022.50134L633.62555,1022.50134L633.6248,1022.501L633.7013,1022.5369C632.1661,1021.85925,630.97473,1021.35474,629.4911,1021.35474L629.4911,1021.35474C629.2678,1021.35474,629.0362,1021.3664,628.7935,1021.392L628.7935,1021.392C626.7864,1021.604,624.1339,1022.7226,621.1047,1024.0231L621.12524,1024.0142L621.1236,1024.0149C621.01465,1024.0634,620.90106,1024.1005,620.7846,1024.126L620.7846,1024.126L615.04767,1025.3815C614.551,1025.4901,614.0316,1025.379,613.62286,1025.0767C613.2141,1024.7743,612.9559,1024.3102,612.9144,1023.8035L612.9144,1023.8035C611.55347,1007.1657,610.2091,991.14233,605.54156,982.05347L605.54156,982.05347C603.76526,978.5945,601.4859,976.11725,599.21924,973.66534L599.21924,973.66534C597.295,971.58374,595.29614,969.43823,593.9366,966.7907L593.9366,966.7908C592.8169,964.61053,592.1424,962.12585,592.1647,959.06165L592.1647,959.06165C592.18677,956.02374,592.90424,952.4085,593.6233,948.75146L593.6233,948.75146C594.4884,944.35126,595.3864,939.75604,595.4187,935.3217L595.4187,935.3217C595.45734,930.0173,594.2547,925.1587,590.41187,921.31165L590.41187,921.31165C580.0887,910.9774,550.62213,907.0905,528.7991,904.9538L528.7991,904.9538C507.3489,902.8536,494.672,902.51135,481.96194,902.1682L482.0061,902.1689C481.2496,902.1674,480.39966,902.16583,479.64572,902.16583L479.64572,902.16583C466.55038,902.16583,454.10175,902.6187,443.20282,910.0459L443.20282,910.0459C431.48947,918.0281,421.40634,934.16144,418.83942,943.60535L418.83942,943.60535C417.26996,949.3796,418.56305,952.4909,419.78143,955.45856L419.78143,955.45856C420.4648,957.12317,421.2565,959.00146,421.28995,961.21643L421.28995,961.21643C421.3458,964.9146,419.25607,969.31885,417.4611,973.1852L417.4611,973.1852C416.31458,975.65466,415.2267,978.0047,414.5415,980.1814L414.5415,980.1814C413.1705,984.5365,413.38162,988.29865,413.71747,993.8351L413.71747,993.835C413.81577,995.4554,413.92294,997.2212,413.99487,999.166L413.99487,999.166C414.30957,1007.67267,413.94818,1019.56104,413.5905,1031.3589C413.5722,1031.9633,413.24536,1032.5161,412.7246,1032.8234L412.7246,1032.8234 M410.9334,1029.7877L410.0675,1031.2522C410.42664,1019.4065,410.78192,1007.65594,410.47266,999.29626L410.47266,999.29626C410.4026,997.4016,410.2976,995.6691,410.19928,994.0485L410.19928,994.04846C409.86823,988.5913,409.5841,984.1909,411.1795,979.12305L411.1795,979.12305C411.9466,976.6862,413.142,974.11804,414.2642,971.7009L414.2642,971.7009C416.20114,967.5288,417.80655,963.9732,417.76572,961.26965L417.76572,961.26965C417.74393,959.827,417.2423,958.5545,416.52087,956.7972L416.52087,956.7972C415.19052,953.55676,413.5672,949.56445,415.43817,942.6809L415.43817,942.6809C418.20816,932.4899,428.75827,915.6241,441.21796,907.1333L441.21796,907.1333C453.11786,899.024,466.61444,898.6412,479.64572,898.6412L479.64572,898.6412C480.4042,898.6412,481.25644,898.64276,482.01294,898.6442L482.0571,898.6449C494.7967,898.98883,507.57123,899.33374,529.1426,901.44586L529.1426,901.44586C550.34143,903.5215,581.46936,907.37225,592.9055,918.8207L592.9055,918.8207C597.649,923.5693,598.9859,929.49286,598.94324,935.34735L598.94324,935.34735C598.90814,940.1684,597.93506,945.0914,597.0818,949.4314L597.0818,949.4314C596.34094,953.19934,595.7084,956.45166,595.6892,959.0873L595.6892,959.0873C595.6711,961.57544,596.2088,963.4998,597.07196,965.18054L597.07196,965.1806C598.17334,967.3254,599.8206,969.1236,601.8074,971.27277L601.8074,971.27277C604.06,973.7095,606.65405,976.5043,608.67694,980.44336L608.67694,980.44336C613.74524,990.3127,615.0945,1007.2218,616.42737,1023.5162L614.2941,1021.93823L620.03107,1020.6828L619.6921,1020.794L619.6937,1020.7933L619.7143,1020.7843C622.5493,1019.5672,625.7632,1018.16785,628.4233,1017.8869L628.4233,1017.8869C628.78925,1017.84827,629.14343,1017.8301,629.4911,1017.8301L629.4911,1017.8301C631.81366,1017.8301,633.6418,1018.6579,635.12463,1019.31244L635.2011,1019.3484L635.20184,1019.34875L635.20184,1019.34875L635.2026,1019.3491L633.2831,1019.5742C635.81274,1017.4561,639.0201,1014.6628,642.86786,1014.6628L642.86786,1014.6628C644.04626,1014.6628,645.24347,1014.9207,646.45337,1015.47485L646.4534,1015.4749C651.488,1017.7809,656.94977,1025.3086,657.9291,1034.5825L657.9291,1034.5825C658.90894,1043.8617,655.42883,1054.9458,652.2734,1062.0223L652.2734,1062.0223C650.7742,1065.3845,649.32074,1067.9033,647.92053,1070.3317L647.9205,1070.3317C646.333,1073.0847,644.8111,1075.7261,643.24884,1079.4899L643.24884,1079.4899C642.5067,1081.2778,641.75336,1083.324,640.9563,1085.4899L640.9563,1085.4899C638.6679,1091.7083,635.89996,1099.3921,632.0906,1102.7102L632.0906,1102.7102C630.3327,1104.2415,628.3607,1104.8821,626.3151,1104.8821L626.3151,1104.8821C622.13385,1104.8821,617.63635,1102.1487,613.7722,1099.8558L616.4093,1098.633C614.171,1111.9138,611.8872,1125.5515,607.13965,1135.5775L607.13965,1135.5775C602.28204,1145.8359,594.9022,1152.2191,579.9672,1159.847L579.9672,1159.847C565.09595,1167.4424,542.3335,1176.4742,520.8579,1179.0581L520.8579,1179.0581C516.15247,1179.6241,511.50864,1179.8804,507.0031,1179.8804L507.0031,1179.8804C490.9147,1179.8804,476.44638,1176.619,466.47812,1172.513L466.47812,1172.513C454.8903,1167.7396,449.40903,1161.8324,445.14636,1156.896L445.14648,1156.896C444.89795,1156.6082,444.6924,1156.3691,444.45184,1156.0891L444.45184,1156.0891C444.16064,1155.7502,444.07828,1155.654,443.7933,1155.3241L443.79318,1155.324C442.84384,1154.2246,441.98895,1153.2568,441.08835,1152.2367L441.08835,1152.2367C437.81003,1148.5233,434.80478,1145.1243,431.96378,1140.6261L431.96378,1140.6261C428.38028,1134.9523,425.099,1127.5975,422.1223,1119.8583L422.1223,1119.8583C419.14038,1112.1055,416.43433,1103.8872,413.7427,1095.7144C413.44037,1094.7963,413.93387,1093.8062,414.8489,1093.4948C415.76395,1093.1833,416.759,1093.667,417.0793,1094.579L417.0793,1094.579L423.24487,1112.1317C423.42792,1112.6528,423.3561,1113.2295,423.05084,1113.6898C422.74557,1114.1501,422.24222,1114.4407,421.691,1114.4747L421.691,1114.4747C421.1966,1114.5054,420.6536,1114.5399,420.09558,1114.5399L420.09558,1114.5399C419.0508,1114.5399,417.80258,1114.4213,416.63254,1113.7681L416.6326,1113.7681C414.67923,1112.6777,413.62537,1110.5168,413.31714,1106.8864L413.31714,1106.8864C413.04965,1103.7357,413.30893,1099.0637,413.47607,1096.2905L413.47607,1096.2905C413.4947,1095.982,413.49335,1096.0045,413.511,1095.7156L413.511,1095.7156C413.52585,1095.4719,413.52563,1095.4767,413.53918,1095.2513L413.5392,1095.2513C413.6217,1093.8827,413.64343,1093.359,413.64343,1093.2003L413.64343,1093.2003C413.64343,1093.1965,413.64334,1093.1912,413.64343,1093.1963L413.6434,1093.1932C413.61716,1091.3264,413.11206,1094.8439,415.39548,1094.8439L415.39548,1094.8439C417.24307,1094.8439,417.4315,1092.0612,417.08963,1093.5457L417.08945,1093.5464C417.0885,1093.5504,417.08823,1093.5518,417.0835,1093.5736C416.89297,1094.4529,416.07126,1095.0474,415.17685,1094.9534C414.28244,1094.8594,413.6023,1094.1069,413.59875,1093.2076L413.59875,1093.2076L413.56335,1084.2115L416.95084,1084.8862C416.66434,1085.5692,416.21704,1086.6876,415.65015,1087.3655L415.65036,1087.3652C415.40582,1087.6577,414.79248,1088.2992,413.81186,1088.2992L413.81186,1088.2992C413.4578,1088.2992,413.1307,1088.2117,412.84598,1088.0697L412.84628,1088.0698C412.42786,1087.8613,412.14093,1087.5562,411.9593,1087.327L411.95898,1087.3267C411.16632,1086.3262,410.44925,1084.1025,409.62448,1081.4751L409.61407,1081.4407L409.61343,1081.4385L409.6238,1081.4728C408.5727,1078.1239,407.1292,1073.2911,406.38254,1070.2303L406.38254,1070.2302C405.79514,1067.8223,405.63162,1066.4763,405.4258,1064.1525L405.4258,1064.1525C405.39948,1063.8552,405.36453,1063.4498,405.33514,1063.1084L405.33514,1063.1084C405.29434,1062.6343,405.26108,1062.247,405.212,1061.6931L405.212,1061.6931C405.09857,1060.4122,404.95163,1058.8356,404.79285,1057.1317L404.79285,1057.1317C404.45203,1053.4744,404.05283,1049.1909,403.80222,1045.8638L403.80222,1045.8638C403.44806,1041.162,403.30402,1037.7903,404.68912,1035.1876L404.68912,1035.1876C406.06485,1032.6025,408.81033,1031.0405,410.93213,1029.7885L410.95337,1029.7761L410.954,1029.7758L410.954,1029.7758L410.95465,1029.7754 Z"/>
</g>
<g style="fill:rgb(254,254,254); fill-opacity:1.0; stroke-linejoin: miter">
<path d="M413.61145,993.385L413.61145,993.385L413.61145,993.386C413.61145,994.2816,412.93967,995.03485,412.04984,995.13684C411.16,995.23883,410.3352,994.6572,410.1325,993.7848L410.1306,993.77655L410.12878,993.7685L410.13068,993.77673C409.0628,989.18036,407.9893,984.5589,406.52094,976.02594L406.52094,976.02594C405.06036,967.53815,403.16553,954.95074,403.91083,944.1398L403.91083,944.1398C404.6603,933.2685,408.07288,924.2837,411.38065,915.54736L411.4078,916.8629C404.9564,901.7401,397.9726,885.628,402.4902,872.4621L402.4902,872.4621C407.01385,859.2785,422.8053,849.6282,439.1104,842.0654L439.1104,842.0654C455.6806,834.37976,473.62463,828.497,501.7368,827.1895L501.7368,827.1895C505.44934,827.01685,509.35,826.92377,513.3714,826.92377L513.3714,826.92377C539.6889,826.92377,571.83844,830.89624,596.775,842.63477L596.775,842.63477C625.5762,856.1925,644.6177,880.0378,652.7318,902.97076L652.7318,902.97076C660.8564,925.93317,657.97833,947.88745,655.18787,969.3809L655.198,969.2805L651.65,1018.5934C651.5802,1019.5642,650.7366,1020.29456,649.76575,1020.22473C648.7949,1020.1549,648.0646,1019.3113,648.1344,1018.34045L648.1344,1018.34045L651.6824,969.0276L651.6925,968.9272C654.4961,947.3329,657.2124,926.20105,649.40906,904.1464L649.40906,904.1464C641.59576,882.06384,623.1882,858.964,595.2738,845.8237L595.2738,845.8237C571.0045,834.39935,539.44495,830.4484,513.3714,830.4484L513.3714,830.4484C509.4047,830.4484,505.55713,830.5403,501.90054,830.7104L501.90054,830.7104C474.29956,831.9941,456.80182,837.7451,440.59344,845.26294L440.59344,845.26294C424.12048,852.9035,409.7975,862.02606,405.82407,873.606L405.82407,873.606C401.84454,885.2038,407.9809,899.84717,414.6498,915.47986C414.82837,915.89844,414.8381,916.3698,414.67697,916.7954L414.67697,916.7954C411.3541,925.57166,408.13602,934.0993,407.42712,944.3822L407.42712,944.3822C406.71408,954.72516,408.53296,966.93445,409.99457,975.42816L409.99457,975.42816C411.44656,983.86615,412.50293,988.4125,413.5639,992.9791L413.5658,992.98737L413.56763,992.9954L410.0868,993.386L410.0868,993.385C410.0868,992.4117,410.87582,991.6227,411.84912,991.6227C412.82242,991.6227,413.61145,992.4117,413.61145,993.385 Z"/>
</g>
</g>
<g id="layer5">
<g style="fill:rgb(0,0,0); fill-opacity:1.0; stroke-linejoin: miter">
<path d="M441.49762,992.75183L410.49274,998.10706L400.0317,999.7606L400.06943,1014.4072Q404.46866,1016.01514,406.42432,1019.45465Q410.43402,1032.8555,419.83194,1050.4684Q422.30252,1054.7009,426.96735,1056.3788Q430.3248,1057.8137,441.20148,1057.7737Q449.37103,1057.0774,456.90256,1056.1104Q472.82568,1053.9296,477.65158,1049.488Q487.3011,1043.308,494.5353,1004.91833Q496.807,999.78674,502.63483,999.7201Q509.53595,999.6177,512.81494,1003.8422Q522.3558,1037.8197,531.2643,1044.5353Q534.8146,1048.0463,553.17737,1049.6317Q566.6446,1049.9946,574.229,1048.8982Q586.157,1047.327,591.0525,1036.2046Q594.9684,1032.1558,596.7252,1002.06647Q597.47217,998.2434,599.27264,997.3888Q600.25195,996.0798,608.2843,999.4691L636.40295,1019.3696L637.2553,1012.0221L607.3489,988.07245Q605.5344,986.60504,587.4169,984.7571Q570.7961,983.3303,561.9641,983.77496Q558.1927,983.8353,550.13617,984.48364L530.75977,986.1742Q528.1362,986.4217,525.79645,986.8433Q519.7932,987.8031,513.3203,992.1896Q501.00986,991.9015,488.58325,993.7191Q481.09647,990.6783,470.30908,990.9816L463.57324,991.139Q455.37012,991.8546,441.49762,992.75183"/>
</g>
</g>
</svg>